<svg xmlns="http://www.w3.org/2000/svg" width="50" height="50" viewBox="0 0 256 256"><path fill="#435589" d="M210.1 46.2c22.5 22.5 33.8 49.7 33.8 81.7 0 31.9-11.3 59.1-33.8 81.7-22.5 22.5-49.7 33.8-81.7 33.8-31.9 0-59.1-11.3-81.7-33.8S13 159.8 13 127.9C13 96 24.3 68.8 46.8 46.2c22.5-22.5 49.7-33.8 81.7-33.8 31.9 0 59.1 11.3 81.6 33.8zm-81.7 13c-19 0-35.2 6.7-48.6 20-13.4 13.3-20.1 29.5-20.1 48.5s6.7 35.2 20.1 48.6c13.4 13.4 29.6 20.1 48.6 20.1s35.1-6.7 48.5-20.1c13.3-13.4 20-29.6 20-48.6s-6.7-35.1-20-48.5c-13.3-13.4-29.5-20-48.5-20z"/><circle fill="#56ffa2" cx="129.6" cy="127.5" r="51.6"/></svg>